# xmcd CD database file
#
# Track frame offsets:
#	150
#	16175
#	36320
#	57867
#	73347
#	96062
#	116597
#	135605
#	159237
#	180332
#	199110
#	219162
#
# Disc length: 3305 seconds
#
# Revision: 0
# Processed by: cddbd v1.5PL3 Copyright (c) Steve Scherf et al.
# Submitted via: CDex 1.50beta9
#
DISCID=9d0ce70c
DTITLE=THE COLLECTROS - candyman
DYEAR=1994
DGENRE=Rock
TTITLE0=キャンディマン
TTITLE1=MOON LOVE CHILD
TTITLE2=真夜中の太陽
TTITLE3=プレィティ･ガール
TTITLE4=雨のうた
TTITLE5=愛ゆえに
TTITLE6=レイニーデイ　マン
TTITLE7=ザ･バラッド･オブ･ロンサム･ジョージ
TTITLE8=恋をしようよ
TTITLE9=ハッピー!ハッピーバースディ　パーティー
TTITLE10=Rock'n Roll Star
TTITLE11=ネイビーブルー
EXTD=YEAR: 1994
EXTT0=
EXTT1=
EXTT2=
EXTT3=
EXTT4=
EXTT5=
EXTT6=
EXTT7=
EXTT8=
EXTT9=
EXTT10=
EXTT11=
PLAYORDER=
